<svg width="1329" height="867" viewBox="0 0 1329 867" fill="none" xmlns="http://www.w3.org/2000/svg">
<g id="room">
<rect width="1329" height="867" fill="white"/>
<g id="well-room1">
<path id="wall" d="M22.5703 426.22V226.984L283.464 77.5394V277.258L22.5703 426.22Z" fill="#E0E0E0"/>
<path id="wall_2" d="M11.0272 219.824L22.5703 226.983L297.957 69.3125L286.414 62.6356L11.0272 219.824Z" fill="#999999"/>
<path id="wall_3" d="M22.5701 426.22V226.984L11.0231 219.824V419.542L22.5701 426.22Z" fill="#F0F0F0"/>
</g>
<g id="wall-bg">
<path id="Exclude" d="M713.703 209.543V9.83197L1305.13 351.773V551.008L713.703 209.543Z" fill="#F0F0F0"/>
<path id="wall_4" d="M1305.13 351.773L714.416 10.2291L728.906 1.9935L1318.51 344.075L1305.13 351.773Z" fill="#999999"/>
<path id="wall_5" d="M1305.13 555.294V351.773L1318.5 344.086V548.089L1305.13 555.294Z" fill="#E0E0E0"/>
</g>
<g id="well-room2">
<path id="wall_6" d="M465.057 365.568V166.332L725.951 16.8875V216.606L465.057 365.568Z" fill="#E0E0E0"/>
<path id="wall_7" d="M453.514 159.186L465.057 166.345L725.951 16.9002L714.408 10.2233L453.514 159.186Z" fill="#999999"/>
<path id="wall_8" d="M465.057 364.776V165.54L453.51 158.38V358.098L465.057 364.776Z" fill="#F0F0F0"/>
</g>
<g id="Room1">
<path id="SW-border" d="M1036.59 396.502L775.702 546.898V537.688L1036.59 388.264V396.502Z" fill="#E0E0E0"/>
<path id="SE-border" d="M465.06 367.782V358.071L775.702 537.664V546.899L465.06 367.782Z" fill="#C4C4C4"/>
<path id="floor" d="M1036.59 388.258L775.701 537.68L465.053 358.073L725.806 207.79L1036.59 388.258Z" fill="white"/>
</g>
<g id="Room2">
<path id="SW-border_2" d="M1305.13 555.319L1044.24 705.715V692.192L1305.13 542.768V555.319Z" fill="#E0E0E0"/>
<path id="SE-border_2" d="M785.944 552.916V543.204L1044.24 692.168V701.403L785.944 552.916Z" fill="#C4C4C4"/>
<path id="floor_2" d="M1305.13 542.763L1044.24 692.184L785.963 543.221L1046.72 392.939L1305.13 542.763Z" fill="white"/>
</g>
<g id="wall-1-2">
<path id="wall_9" d="M785.92 542.322V480.628L827.036 456.605V518.781L785.92 542.322Z" fill="#E0E0E0"/>
<path id="wall_10" d="M774.377 473.47L785.92 480.629L827.026 456.613L815.483 449.936L774.377 473.47Z" fill="#999999"/>
<path id="wall_11" d="M785.92 542.321V480.624L774.373 473.464V535.644L785.92 542.321Z" fill="#F0F0F0"/>
<path id="wall_12" d="M872.156 492.924V431.23L1046.72 330.759V392.935L872.156 492.924Z" fill="#E0E0E0"/>
<path id="wall_13" d="M860.613 424.072L872.156 431.232L1046.72 330.758L1035.18 324.081L860.613 424.072Z" fill="#999999"/>
<path id="wall_14" d="M872.156 492.924V431.226L860.609 424.067V486.246L872.156 492.924Z" fill="#F0F0F0"/>
</g>
<g id="wall-central">
<path id="wall_15" d="M1030.86 702.34L283.371 270.167L297.861 261.932L1044.24 694.642L1030.86 702.34Z" fill="white"/>
<path id="wall_16" d="M685.765 510.384V435.51L1030.86 635.586V709.983L685.765 510.384Z" fill="#F0F0F0"/>
<path id="wall_17" d="M283.451 277.262L283.451 77.5391L327.789 103.237L435.352 290.43L613.822 393.87V468.268L283.451 277.262Z" fill="#F0F0F0"/>
<path id="wall_18" d="M1030.86 635.588L685.764 435.507L700.254 427.271L1044.24 627.89L1030.86 635.588Z" fill="#999999"/>
<path id="wall_19" d="M1030.86 713.359V635.589L1044.22 627.901V705.722L1030.86 713.359Z" fill="#E0E0E0"/>
<path id="wall_20" d="M627.204 386.173L613.825 393.871L435.466 290.493L327.819 103.254L283.465 77.5469L297.955 69.3113L342.24 95.1377L449.442 282.503L627.204 386.173Z" fill="#999999"/>
<path id="wall_21" d="M613.825 468.266V393.871L627.188 386.184V461.061L613.825 468.266Z" fill="#E0E0E0"/>
</g>
<g id="Room4">
<path id="SW-border_3" d="M578.874 446.576L317.984 596.973V587.762L578.874 438.338V446.576Z" fill="#E0E0E0"/>
<path id="SE-border_3" d="M22.5727 431.495V416.519L317.984 587.738V602.238L22.5727 431.495Z" fill="#F0F0F0"/>
<path id="floor_3" d="M578.875 438.333L317.984 587.754L22.5742 416.516L283.328 266.233L578.875 438.333Z" fill="white"/>
</g>
<g id="wall-3-4">
<g id="Group 1">
<path id="wall_22" d="M329.535 604.212V542.519L370.651 518.496V580.672L329.535 604.212Z" fill="#E0E0E0"/>
<path id="wall_23" d="M317.992 535.361L329.535 542.52L370.641 518.504L359.098 511.827L317.992 535.361Z" fill="#999999"/>
<path id="wall_24" d="M329.535 608.934V542.515L317.988 535.355V602.256L329.535 608.934Z" fill="#F0F0F0"/>
</g>
<g id="Group 3">
<path id="wall_25" d="M415.771 554.814V493.121L590.334 392.65V454.826L415.771 554.814Z" fill="#E0E0E0"/>
<path id="wall_26" d="M404.228 485.963L415.771 493.122L590.336 392.648L578.793 385.971L404.228 485.963Z" fill="#999999"/>
<path id="wall_27" d="M415.771 554.815V493.117L404.224 485.958V548.137L415.771 554.815Z" fill="#F0F0F0"/>
</g>
</g>
<g id="Room3">
<path id="SW-border_4" d="M1030.83 713.389L769.938 863.785V849.84L1030.83 700.416V713.389Z" fill="#E0E0E0"/>
<path id="SE-border_4" d="M329.535 608.936V594.49L769.938 849.815V863.785L329.535 608.936Z" fill="#F0F0F0"/>
<path id="floor_4" d="M1030.83 700.41L769.938 849.832L329.535 594.491L590.289 444.208L1030.83 700.41Z" fill="white"/>
</g>
<path id="Kitchen" d="M246.78 439.767L227.861 428.845L231.861 426.536L240.203 431.352L240.452 431.208L238.919 422.462L243.713 419.694L245.164 428.637L262.716 430.568L257.93 433.33L244.97 431.832L245.404 434.354L250.78 437.458L246.78 439.767ZM265.531 428.943L251.342 420.751L255.277 418.479L269.466 426.671L265.531 428.943ZM251.489 418.554C250.904 418.892 250.208 419.069 249.402 419.087C248.595 419.098 247.917 418.945 247.369 418.629C246.827 418.316 246.569 417.928 246.593 417.466C246.618 416.997 246.923 416.593 247.508 416.255C248.093 415.918 248.789 415.743 249.596 415.733C250.402 415.715 251.077 415.863 251.619 416.175C252.167 416.492 252.428 416.885 252.404 417.354C252.379 417.816 252.074 418.216 251.489 418.554ZM265.977 412.302L268.933 414.009L260.388 418.942L257.432 417.235L265.977 412.302ZM255.972 414.153L259.907 411.881L273.136 419.518C273.499 419.728 273.838 419.859 274.152 419.913C274.46 419.962 274.753 419.953 275.03 419.886C275.313 419.815 275.587 419.703 275.852 419.55C276.037 419.443 276.206 419.328 276.36 419.203C276.508 419.075 276.622 418.977 276.702 418.91L280.249 420.243C280.114 420.392 279.907 420.593 279.63 420.846C279.359 421.102 278.977 421.383 278.485 421.688C277.573 422.257 276.616 422.664 275.612 422.91C274.614 423.151 273.613 423.21 272.609 423.086C271.606 422.961 270.642 422.629 269.718 422.088L255.972 414.153ZM289.265 415.561C287.812 416.4 286.254 416.944 284.591 417.193C282.928 417.434 281.265 417.399 279.602 417.086C277.946 416.77 276.4 416.197 274.965 415.369C273.512 414.53 272.517 413.632 271.981 412.676C271.445 411.712 271.39 410.752 271.815 409.796C272.234 408.836 273.161 407.942 274.596 407.113C275.833 406.399 277.142 405.903 278.522 405.625C279.901 405.348 281.268 405.288 282.623 405.444C283.978 405.6 285.231 405.979 286.383 406.58L282.669 408.724C281.856 408.375 281.01 408.207 280.129 408.217C279.248 408.221 278.448 408.431 277.727 408.847C277.117 409.198 276.751 409.602 276.628 410.057C276.505 410.505 276.631 410.983 277.007 411.492C277.382 412 278.017 412.512 278.91 413.028C279.815 413.55 280.708 413.924 281.589 414.148C282.475 414.368 283.313 414.443 284.101 414.372C284.89 414.3 285.589 414.089 286.198 413.737C286.648 413.477 286.959 413.191 287.131 412.878C287.31 412.562 287.341 412.235 287.224 411.897C287.107 411.552 286.836 411.214 286.411 410.884L290.124 408.74C291.147 409.401 291.806 410.123 292.101 410.905C292.397 411.68 292.314 412.468 291.852 413.268C291.39 414.068 290.528 414.832 289.265 415.561ZM293.577 403.28L301.78 408.016L297.845 410.288L278.926 399.366L282.75 397.158L289.983 401.334L290.15 401.238C289.632 400.569 289.494 399.892 289.734 399.206C289.968 398.516 290.624 397.86 291.702 397.238C292.687 396.669 293.762 396.297 294.926 396.123C296.09 395.942 297.275 395.965 298.482 396.193C299.689 396.413 300.844 396.845 301.947 397.489L310.981 402.704L307.046 404.976L298.713 400.166C297.845 399.657 296.943 399.392 296.007 399.371C295.077 399.346 294.211 399.565 293.411 400.027C292.875 400.336 292.515 400.676 292.33 401.046C292.151 401.412 292.164 401.789 292.367 402.176C292.57 402.557 292.973 402.925 293.577 403.28ZM320.822 397.343C319.362 398.186 317.81 398.74 316.166 399.007C314.522 399.267 312.871 399.245 311.214 398.943C309.552 398.637 307.972 398.052 306.475 397.189C305.016 396.346 304.018 395.443 303.482 394.479C302.947 393.516 302.885 392.559 303.298 391.61C303.716 390.657 304.622 389.779 306.013 388.976C306.95 388.435 307.972 388.019 309.08 387.728C310.189 387.429 311.344 387.278 312.545 387.274C313.752 387.267 314.977 387.427 316.221 387.754C317.459 388.078 318.682 388.588 319.889 389.285L320.97 389.909L308.988 396.826L306.549 395.418L314.826 390.64C314.26 390.312 313.635 390.094 312.951 389.984C312.268 389.873 311.584 389.873 310.9 389.984C310.217 390.087 309.589 390.304 309.016 390.634C308.418 390.979 308.027 391.365 307.843 391.792C307.658 392.211 307.667 392.629 307.87 393.045C308.067 393.457 308.443 393.827 308.997 394.154L311.316 395.493C312.018 395.898 312.754 396.173 313.524 396.319C314.3 396.461 315.067 396.474 315.824 396.357C316.582 396.239 317.29 395.99 317.949 395.61C318.386 395.358 318.725 395.091 318.965 394.81C319.205 394.529 319.331 394.243 319.344 393.951C319.356 393.66 319.251 393.372 319.03 393.087L322.91 391.125C323.599 391.736 323.984 392.396 324.064 393.103C324.144 393.804 323.916 394.518 323.381 395.247C322.845 395.969 321.992 396.668 320.822 397.343ZM325.358 384.933L333.561 389.669L329.625 391.941L315.436 383.749L319.187 381.584L321.69 383.029L321.856 382.933C321.345 382.276 321.219 381.595 321.478 380.891C321.73 380.183 322.383 379.526 323.436 378.918C324.421 378.349 325.496 377.977 326.66 377.803C327.824 377.629 329.01 377.655 330.217 377.883C331.418 378.107 332.569 378.537 333.672 379.174L342.706 384.389L338.771 386.661L330.438 381.851C329.576 381.346 328.677 381.083 327.741 381.061C326.799 381.037 325.933 381.252 325.145 381.707C324.615 382.013 324.261 382.349 324.083 382.715C323.91 383.077 323.929 383.451 324.138 383.835C324.348 384.212 324.754 384.578 325.358 384.933Z" fill="black"/>
<path id="Bedroom" d="M713.879 372.705L694.96 361.783L702.535 357.41C703.927 356.606 705.294 356.055 706.636 355.756C707.979 355.458 709.251 355.385 710.452 355.538C711.646 355.687 712.718 356.036 713.666 356.583C714.405 357.01 714.907 357.47 715.172 357.964C715.431 358.455 715.48 358.953 715.32 359.458C715.16 359.955 714.824 360.437 714.313 360.903L714.498 361.01C715.249 360.611 716.127 360.339 717.131 360.194C718.141 360.044 719.181 360.051 720.253 360.215C721.318 360.375 722.316 360.723 723.246 361.26C724.25 361.84 724.897 362.501 725.186 363.244C725.475 363.98 725.365 364.759 724.853 365.58C724.342 366.401 723.378 367.221 721.962 368.038L713.879 372.705ZM714.609 368.508L717.87 366.625C718.984 365.982 719.585 365.39 719.671 364.849C719.751 364.305 719.434 363.827 718.72 363.415C718.196 363.112 717.608 362.919 716.955 362.833C716.302 362.748 715.628 362.775 714.932 362.913C714.242 363.049 713.577 363.301 712.937 363.671L709.583 365.607L714.609 368.508ZM706.877 364.044L709.842 362.332C710.39 362.016 710.781 361.68 711.015 361.324C711.249 360.962 711.311 360.606 711.2 360.258C711.095 359.906 710.793 359.586 710.295 359.298C709.611 358.903 708.817 358.725 707.911 358.764C707.012 358.8 706.119 359.074 705.232 359.586L702.193 361.34L706.877 364.044ZM737.747 359.246C736.288 360.088 734.736 360.643 733.091 360.91C731.447 361.169 729.796 361.148 728.14 360.846C726.477 360.54 724.897 359.955 723.401 359.091C721.941 358.248 720.944 357.345 720.408 356.382C719.872 355.418 719.81 354.462 720.223 353.513C720.642 352.56 721.547 351.682 722.939 350.878C723.875 350.338 724.897 349.922 726.006 349.63C727.114 349.332 728.269 349.18 729.47 349.177C730.677 349.17 731.903 349.33 733.147 349.657C734.385 349.98 735.607 350.491 736.814 351.187L737.895 351.811L725.913 358.728L723.475 357.32L731.752 352.542C731.185 352.215 730.56 351.996 729.877 351.886C729.193 351.776 728.509 351.776 727.826 351.886C727.142 351.989 726.514 352.206 725.941 352.537C725.344 352.882 724.953 353.267 724.768 353.694C724.583 354.113 724.592 354.531 724.796 354.947C724.993 355.36 725.368 355.729 725.923 356.056L728.241 357.395C728.944 357.8 729.679 358.076 730.449 358.222C731.225 358.364 731.992 358.376 732.75 358.259C733.507 358.142 734.215 357.893 734.874 357.512C735.311 357.26 735.65 356.993 735.89 356.712C736.131 356.432 736.257 356.145 736.269 355.854C736.281 355.562 736.177 355.274 735.955 354.99L739.835 353.027C740.525 353.639 740.91 354.298 740.99 355.006C741.07 355.706 740.842 356.421 740.306 357.15C739.77 357.871 738.917 358.57 737.747 359.246ZM752.01 350.958C750.933 351.58 749.679 351.984 748.251 352.169C746.822 352.346 745.31 352.27 743.715 351.939C742.12 351.602 740.531 350.976 738.948 350.062C737.322 349.124 736.232 348.192 735.678 347.268C735.117 346.34 735.004 345.47 735.336 344.66C735.669 343.842 736.355 343.133 737.396 342.532C738.191 342.073 738.988 341.769 739.789 341.62C740.589 341.464 741.353 341.407 742.08 341.449C742.806 341.485 743.447 341.563 744.001 341.684L744.121 341.615L737.008 337.508L740.934 335.242L759.853 346.164L755.973 348.404L753.701 347.092L753.535 347.188C753.744 347.522 753.873 347.899 753.923 348.318C753.972 348.731 753.855 349.164 753.572 349.62C753.295 350.071 752.774 350.517 752.01 350.958ZM750.126 348.43C750.76 348.064 751.124 347.655 751.216 347.204C751.308 346.745 751.157 346.267 750.763 345.769C750.375 345.268 749.759 344.774 748.916 344.287C748.072 343.799 747.222 343.444 746.366 343.22C745.51 342.996 744.691 342.914 743.909 342.975C743.127 343.035 742.418 343.248 741.784 343.615C741.137 343.988 740.768 344.404 740.676 344.862C740.583 345.321 740.734 345.796 741.128 346.286C741.522 346.777 742.129 347.259 742.948 347.732C743.773 348.208 744.617 348.564 745.479 348.798C746.341 349.026 747.17 349.116 747.964 349.07C748.759 349.017 749.479 348.804 750.126 348.43ZM763.089 344.296L748.9 336.104L752.715 333.902L755.191 335.331L755.338 335.246C754.716 334.588 754.485 333.953 754.646 333.342C754.8 332.727 755.274 332.19 756.068 331.731C756.265 331.617 756.49 331.502 756.743 331.385C756.995 331.267 757.229 331.171 757.445 331.097L760.937 333.113C760.696 333.187 760.391 333.306 760.022 333.47C759.652 333.633 759.332 333.793 759.061 333.95C758.482 334.284 758.091 334.656 757.888 335.064C757.685 335.466 757.672 335.871 757.851 336.28C758.036 336.686 758.418 337.055 758.997 337.39L767.024 342.024L763.089 344.296ZM779.761 334.991C778.326 335.819 776.78 336.36 775.124 336.612C773.467 336.858 771.807 336.827 770.144 336.522C768.475 336.212 766.914 335.638 765.461 334.799C763.995 333.953 762.997 333.05 762.468 332.09C761.932 331.126 761.88 330.168 762.311 329.215C762.742 328.255 763.675 327.361 765.11 326.533C766.545 325.705 768.09 325.168 769.747 324.922C771.404 324.67 773.067 324.698 774.736 325.008C776.398 325.313 777.963 325.889 779.428 326.736C780.882 327.575 781.876 328.476 782.412 329.439C782.942 330.399 782.991 331.359 782.56 332.319C782.129 333.272 781.196 334.163 779.761 334.991ZM776.731 333.22C777.384 332.844 777.744 332.422 777.812 331.957C777.873 331.487 777.692 331.002 777.267 330.501C776.848 329.996 776.226 329.505 775.401 329.029C774.575 328.552 773.726 328.193 772.851 327.951C771.983 327.706 771.142 327.601 770.329 327.637C769.516 327.672 768.783 327.879 768.131 328.255C767.472 328.636 767.105 329.064 767.031 329.541C766.963 330.014 767.139 330.502 767.558 331.007C767.983 331.509 768.608 331.997 769.433 332.474C770.258 332.95 771.105 333.311 771.973 333.556C772.848 333.798 773.695 333.9 774.514 333.86C775.333 333.814 776.072 333.601 776.731 333.22ZM795.715 325.781C794.28 326.609 792.734 327.15 791.077 327.402C789.421 327.647 787.761 327.617 786.098 327.312C784.429 327.002 782.868 326.428 781.415 325.589C779.949 324.743 778.951 323.84 778.421 322.88C777.886 321.916 777.833 320.958 778.264 320.005C778.696 319.045 779.629 318.151 781.064 317.323C782.498 316.494 784.044 315.958 785.701 315.712C787.358 315.46 789.02 315.488 790.689 315.798C792.352 316.103 793.916 316.679 795.382 317.525C796.836 318.364 797.83 319.266 798.366 320.229C798.896 321.189 798.945 322.149 798.514 323.109C798.083 324.062 797.15 324.953 795.715 325.781ZM792.685 324.01C793.338 323.634 793.698 323.212 793.766 322.746C793.827 322.277 793.645 321.792 793.221 321.291C792.802 320.786 792.18 320.295 791.354 319.819C790.529 319.342 789.679 318.983 788.805 318.741C787.936 318.496 787.096 318.391 786.283 318.427C785.47 318.462 784.737 318.668 784.084 319.045C783.425 319.426 783.059 319.854 782.985 320.331C782.917 320.803 783.093 321.292 783.512 321.797C783.936 322.298 784.562 322.787 785.387 323.264C786.212 323.74 787.059 324.101 787.927 324.346C788.802 324.588 789.649 324.689 790.468 324.65C791.287 324.604 792.026 324.391 792.685 324.01ZM804.98 320.112L790.791 311.92L794.542 309.755L797.045 311.2L797.211 311.104C796.675 310.454 796.512 309.791 796.722 309.115C796.931 308.44 797.516 307.825 798.477 307.27C799.45 306.708 800.522 306.371 801.692 306.257C802.856 306.139 803.964 306.253 805.017 306.598L805.165 306.513C804.642 305.876 804.515 305.199 804.786 304.481C805.057 303.756 805.713 303.093 806.754 302.492C808.078 301.727 809.575 301.35 811.244 301.361C812.913 301.365 814.517 301.811 816.057 302.7L825.599 308.209L821.673 310.475L812.906 305.414C812.118 304.959 811.318 304.739 810.505 304.753C809.692 304.767 808.971 304.956 808.343 305.318C807.629 305.731 807.299 306.184 807.354 306.678C807.404 307.169 807.798 307.627 808.537 308.054L817.202 313.056L813.387 315.259L804.537 310.15C803.841 309.748 803.087 309.544 802.274 309.537C801.467 309.526 800.74 309.707 800.094 310.081C799.656 310.333 799.373 310.625 799.244 310.955C799.114 311.279 799.145 311.613 799.336 311.958C799.521 312.299 799.875 312.621 800.398 312.923L808.916 317.84L804.98 320.112Z" fill="black"/>
<path id="Bathroom" d="M1012.82 572.895L993.899 561.973L1001.47 557.6C1002.87 556.796 1004.23 556.245 1005.58 555.947C1006.92 555.648 1008.19 555.575 1009.39 555.728C1010.59 555.877 1011.66 556.226 1012.61 556.773C1013.34 557.2 1013.85 557.66 1014.11 558.154C1014.37 558.645 1014.42 559.143 1014.26 559.648C1014.1 560.145 1013.76 560.627 1013.25 561.093L1013.44 561.2C1014.19 560.801 1015.07 560.529 1016.07 560.384C1017.08 560.234 1018.12 560.241 1019.19 560.405C1020.26 560.565 1021.26 560.913 1022.19 561.45C1023.19 562.03 1023.84 562.691 1024.12 563.434C1024.41 564.17 1024.3 564.949 1023.79 565.77C1023.28 566.591 1022.32 567.411 1020.9 568.228L1012.82 572.895ZM1013.55 568.698L1016.81 566.815C1017.92 566.172 1018.52 565.58 1018.61 565.039C1018.69 564.495 1018.37 564.017 1017.66 563.605C1017.13 563.303 1016.55 563.109 1015.89 563.023C1015.24 562.938 1014.57 562.965 1013.87 563.103C1013.18 563.239 1012.52 563.491 1011.88 563.861L1008.52 565.797L1013.55 568.698ZM1005.82 564.234L1008.78 562.522C1009.33 562.206 1009.72 561.87 1009.95 561.514C1010.19 561.152 1010.25 560.796 1010.14 560.448C1010.03 560.096 1009.73 559.776 1009.23 559.488C1008.55 559.093 1007.76 558.915 1006.85 558.954C1005.95 558.99 1005.06 559.264 1004.17 559.776L1001.13 561.53L1005.82 564.234ZM1034.26 560.828C1033.35 561.35 1032.39 561.725 1031.37 561.953C1030.34 562.177 1029.31 562.228 1028.27 562.107C1027.24 561.979 1026.25 561.645 1025.31 561.105C1024.53 560.65 1024.01 560.184 1023.76 559.708C1023.52 559.231 1023.48 558.755 1023.65 558.278C1023.82 557.802 1024.14 557.333 1024.61 556.87C1025.09 556.405 1025.64 555.95 1026.28 555.505C1027.01 554.979 1027.6 554.549 1028.03 554.215C1028.46 553.877 1028.7 553.598 1028.78 553.377C1028.85 553.157 1028.74 552.96 1028.44 552.785L1028.38 552.753C1027.8 552.416 1027.16 552.261 1026.47 552.289C1025.79 552.314 1025.11 552.521 1024.44 552.908C1023.73 553.317 1023.32 553.733 1023.22 554.156C1023.11 554.575 1023.22 554.959 1023.55 555.308L1019.61 557.238C1018.94 556.634 1018.56 555.994 1018.47 555.319C1018.38 554.639 1018.59 553.955 1019.11 553.265C1019.62 552.569 1020.45 551.893 1021.58 551.239C1022.37 550.784 1023.22 550.402 1024.12 550.092C1025.03 549.779 1025.96 549.573 1026.91 549.474C1027.87 549.37 1028.81 549.401 1029.75 549.564C1030.68 549.724 1031.57 550.048 1032.41 550.535L1041.98 556.06L1038.25 558.214L1036.28 557.078L1036.17 557.142C1036.38 557.53 1036.47 557.932 1036.43 558.348C1036.38 558.76 1036.18 559.176 1035.84 559.596C1035.49 560.012 1034.96 560.422 1034.26 560.828ZM1032.67 558.609C1033.25 558.275 1033.64 557.914 1033.86 557.526C1034.07 557.135 1034.1 556.753 1033.96 556.38C1033.82 556.007 1033.5 555.676 1033 555.388L1031.49 554.519C1031.45 554.636 1031.36 554.776 1031.21 554.94C1031.06 555.096 1030.88 555.267 1030.67 555.452C1030.46 555.633 1030.24 555.813 1030.02 555.991C1029.79 556.165 1029.58 556.323 1029.4 556.465C1029 556.771 1028.71 557.066 1028.51 557.35C1028.31 557.635 1028.25 557.905 1028.31 558.161C1028.36 558.413 1028.58 558.646 1028.94 558.86C1029.48 559.169 1030.08 559.293 1030.76 559.233C1031.43 559.165 1032.06 558.957 1032.67 558.609ZM1038.39 541.749L1041.35 543.455L1032.8 548.388L1029.85 546.682L1038.39 541.749ZM1028.39 543.599L1032.32 541.327L1045.55 548.964C1045.91 549.174 1046.25 549.306 1046.57 549.359C1046.87 549.409 1047.17 549.4 1047.44 549.332C1047.73 549.261 1048 549.149 1048.27 548.996C1048.45 548.89 1048.62 548.774 1048.77 548.65C1048.92 548.522 1049.04 548.424 1049.12 548.356L1052.66 549.69C1052.53 549.839 1052.32 550.04 1052.04 550.292C1051.77 550.548 1051.39 550.829 1050.9 551.135C1049.99 551.704 1049.03 552.111 1048.03 552.356C1047.03 552.598 1046.03 552.656 1045.02 552.532C1044.02 552.408 1043.06 552.075 1042.13 551.535L1028.39 543.599ZM1051.18 541.277L1059.38 546.012L1055.45 548.284L1036.53 537.362L1040.35 535.154L1047.59 539.33L1047.75 539.234C1047.24 538.566 1047.1 537.888 1047.34 537.202C1047.57 536.513 1048.23 535.857 1049.31 535.234C1050.29 534.666 1051.37 534.294 1052.53 534.12C1053.69 533.938 1054.88 533.962 1056.09 534.189C1057.29 534.41 1058.45 534.842 1059.55 535.485L1068.58 540.701L1064.65 542.973L1056.32 538.162C1055.45 537.654 1054.55 537.389 1053.61 537.368C1052.68 537.343 1051.81 537.561 1051.01 538.024C1050.48 538.333 1050.12 538.672 1049.93 539.042C1049.75 539.408 1049.77 539.785 1049.97 540.173C1050.17 540.553 1050.58 540.921 1051.18 541.277ZM1071.68 538.913L1057.49 530.721L1061.31 528.519L1063.78 529.948L1063.93 529.863C1063.31 529.205 1063.08 528.57 1063.24 527.959C1063.39 527.344 1063.87 526.807 1064.66 526.348C1064.86 526.235 1065.08 526.119 1065.34 526.002C1065.59 525.884 1065.82 525.788 1066.04 525.714L1069.53 527.73C1069.29 527.804 1068.98 527.923 1068.61 528.087C1068.24 528.25 1067.92 528.41 1067.65 528.567C1067.07 528.901 1066.68 529.273 1066.48 529.681C1066.28 530.083 1066.27 530.488 1066.44 530.897C1066.63 531.303 1067.01 531.672 1067.59 532.007L1075.62 536.641L1071.68 538.913ZM1088.35 529.608C1086.92 530.436 1085.37 530.977 1083.72 531.229C1082.06 531.475 1080.4 531.444 1078.74 531.139C1077.07 530.829 1075.51 530.255 1074.05 529.416C1072.59 528.57 1071.59 527.667 1071.06 526.707C1070.52 525.743 1070.47 524.785 1070.9 523.832C1071.33 522.872 1072.27 521.978 1073.7 521.15C1075.14 520.322 1076.68 519.785 1078.34 519.539C1080 519.287 1081.66 519.315 1083.33 519.625C1084.99 519.93 1086.56 520.506 1088.02 521.353C1089.47 522.192 1090.47 523.093 1091 524.056C1091.53 525.016 1091.58 525.976 1091.15 526.936C1090.72 527.889 1089.79 528.78 1088.35 529.608ZM1085.32 527.838C1085.98 527.461 1086.34 527.039 1086.4 526.574C1086.47 526.104 1086.28 525.619 1085.86 525.118C1085.44 524.613 1084.82 524.122 1083.99 523.646C1083.17 523.169 1082.32 522.81 1081.44 522.569C1080.58 522.323 1079.73 522.218 1078.92 522.254C1078.11 522.289 1077.38 522.496 1076.72 522.872C1076.06 523.253 1075.7 523.681 1075.62 524.158C1075.56 524.631 1075.73 525.119 1076.15 525.624C1076.58 526.126 1077.2 526.614 1078.03 527.091C1078.85 527.567 1079.7 527.928 1080.57 528.174C1081.44 528.415 1082.29 528.517 1083.11 528.477C1083.93 528.431 1084.66 528.218 1085.32 527.838ZM1104.31 520.398C1102.87 521.226 1101.33 521.767 1099.67 522.019C1098.01 522.265 1096.35 522.234 1094.69 521.929C1093.02 521.619 1091.46 521.045 1090.01 520.206C1088.54 519.36 1087.54 518.457 1087.01 517.497C1086.48 516.533 1086.43 515.575 1086.86 514.622C1087.29 513.662 1088.22 512.768 1089.66 511.94C1091.09 511.111 1092.64 510.575 1094.29 510.329C1095.95 510.077 1097.61 510.105 1099.28 510.415C1100.94 510.72 1102.51 511.296 1103.97 512.142C1105.43 512.982 1106.42 513.883 1106.96 514.846C1107.49 515.806 1107.54 516.766 1107.11 517.726C1106.68 518.679 1105.74 519.57 1104.31 520.398ZM1101.28 518.627C1101.93 518.251 1102.29 517.829 1102.36 517.363C1102.42 516.894 1102.24 516.409 1101.81 515.908C1101.39 515.403 1100.77 514.912 1099.95 514.436C1099.12 513.959 1098.27 513.6 1097.4 513.358C1096.53 513.113 1095.69 513.008 1094.88 513.044C1094.06 513.079 1093.33 513.286 1092.68 513.662C1092.02 514.043 1091.65 514.471 1091.58 514.948C1091.51 515.42 1091.69 515.909 1092.1 516.414C1092.53 516.916 1093.15 517.404 1093.98 517.881C1094.8 518.357 1095.65 518.718 1096.52 518.963C1097.39 519.205 1098.24 519.306 1099.06 519.267C1099.88 519.221 1100.62 519.008 1101.28 518.627ZM1113.57 514.729L1099.38 506.537L1103.13 504.372L1105.64 505.818L1105.8 505.722C1105.27 505.071 1105.1 504.408 1105.31 503.732C1105.52 503.057 1106.11 502.442 1107.07 501.887C1108.04 501.325 1109.11 500.988 1110.28 500.874C1111.45 500.756 1112.56 500.87 1113.61 501.215L1113.76 501.13C1113.23 500.493 1113.11 499.816 1113.38 499.098C1113.65 498.373 1114.31 497.71 1115.35 497.109C1116.67 496.344 1118.17 495.967 1119.84 495.978C1121.51 495.982 1123.11 496.428 1124.65 497.317L1134.19 502.826L1130.27 505.092L1121.5 500.031C1120.71 499.576 1119.91 499.356 1119.1 499.37C1118.28 499.384 1117.56 499.573 1116.94 499.935C1116.22 500.348 1115.89 500.801 1115.95 501.295C1116 501.786 1116.39 502.244 1117.13 502.671L1125.79 507.673L1121.98 509.876L1113.13 504.767C1112.43 504.365 1111.68 504.161 1110.87 504.154C1110.06 504.143 1109.33 504.324 1108.69 504.698C1108.25 504.95 1107.97 505.242 1107.84 505.572C1107.71 505.896 1107.74 506.23 1107.93 506.575C1108.11 506.916 1108.47 507.238 1108.99 507.54L1117.51 512.457L1113.57 514.729Z" fill="black"/>
<path id="Living room" d="M625.236 700.394L606.317 689.472L610.317 687.163L625.938 696.181L634.049 691.499L637.347 693.403L625.236 700.394ZM639.922 691.916L625.733 683.724L629.668 681.453L643.857 689.644L639.922 691.916ZM625.881 681.527C625.296 681.865 624.6 682.043 623.793 682.061C622.986 682.071 622.309 681.918 621.761 681.602C621.219 681.289 620.96 680.902 620.985 680.439C621.009 679.97 621.314 679.566 621.899 679.229C622.484 678.891 623.18 678.717 623.987 678.706C624.794 678.688 625.468 678.836 626.01 679.149C626.558 679.465 626.82 679.858 626.795 680.327C626.771 680.79 626.466 681.189 625.881 681.527ZM646.049 671.996L655.278 683.051L650.844 685.611L631.694 680.283L635.851 677.883L648.95 682.043L649.098 681.958L641.883 674.401L646.049 671.996ZM662.252 679.025L648.063 670.833L651.998 668.561L666.188 676.753L662.252 679.025ZM648.211 668.636C647.626 668.974 646.93 669.152 646.123 669.169C645.316 669.18 644.639 669.027 644.091 668.711C643.549 668.398 643.29 668.01 643.315 667.548C643.339 667.079 643.644 666.675 644.229 666.337C644.814 666 645.51 665.826 646.317 665.815C647.124 665.797 647.798 665.945 648.34 666.257C648.888 666.574 649.15 666.967 649.125 667.436C649.101 667.898 648.796 668.298 648.211 668.636ZM665.072 667.925L673.275 672.661L669.34 674.933L655.151 666.741L658.901 664.576L661.405 666.022L661.571 665.926C661.06 665.268 660.934 664.587 661.192 663.883C661.445 663.175 662.098 662.518 663.151 661.91C664.136 661.341 665.211 660.969 666.375 660.795C667.539 660.621 668.724 660.648 669.931 660.875C671.132 661.099 672.284 661.529 673.386 662.166L682.421 667.381L678.486 669.653L670.153 664.843C669.291 664.338 668.392 664.075 667.456 664.054C666.513 664.029 665.648 664.244 664.86 664.699C664.33 665.005 663.976 665.341 663.797 665.707C663.625 666.07 663.643 666.443 663.853 666.827C664.062 667.204 664.469 667.57 665.072 667.925ZM697.532 665.143C696.257 665.879 694.988 666.409 693.726 666.732C692.476 667.056 691.284 667.2 690.151 667.164C689.018 667.129 687.998 666.942 687.093 666.604L690.243 664.22C690.637 664.32 691.078 664.371 691.564 664.375C692.051 664.378 692.565 664.309 693.107 664.167C693.661 664.025 694.225 663.788 694.797 663.458C695.653 662.963 696.149 662.436 696.285 661.874C696.432 661.312 696.02 660.75 695.047 660.189L692.451 658.69L692.285 658.786C692.506 659.113 692.62 659.477 692.626 659.879C692.633 660.281 692.476 660.702 692.155 661.143C691.835 661.584 691.299 662.021 690.548 662.455C689.483 663.07 688.266 663.488 686.899 663.708C685.532 663.922 684.078 663.883 682.539 663.591C680.999 663.292 679.444 662.69 677.874 661.783C676.266 660.855 675.185 659.929 674.631 659.005C674.077 658.08 673.966 657.213 674.299 656.402C674.637 655.588 675.327 654.88 676.368 654.28C677.162 653.821 677.963 653.515 678.77 653.362C679.57 653.206 680.334 653.149 681.061 653.192C681.787 653.227 682.431 653.304 682.991 653.421L683.139 653.336L680.756 651.96L684.663 649.704L698.991 657.975C700.198 658.672 700.913 659.426 701.135 660.237C701.356 661.047 701.147 661.872 700.506 662.711C699.878 663.55 698.887 664.361 697.532 665.143ZM688.839 660.029C689.473 659.662 689.852 659.262 689.975 658.829C690.098 658.388 689.981 657.929 689.624 657.453C689.267 656.969 688.673 656.487 687.841 656.007C687.01 655.527 686.172 655.179 685.329 654.962C684.479 654.742 683.663 654.662 682.881 654.722C682.098 654.783 681.39 654.996 680.756 655.362C680.109 655.735 679.74 656.151 679.647 656.61C679.549 657.065 679.693 657.536 680.081 658.023C680.469 658.51 681.067 658.987 681.874 659.453C682.693 659.925 683.515 660.269 684.34 660.482C685.165 660.688 685.96 660.759 686.723 660.695C687.487 660.624 688.192 660.402 688.839 660.029ZM708.005 652.612L693.816 644.42L697.631 642.218L700.107 643.647L700.255 643.562C699.633 642.904 699.402 642.269 699.562 641.658C699.716 641.043 700.19 640.506 700.984 640.047C701.181 639.933 701.406 639.818 701.659 639.7C701.911 639.583 702.145 639.487 702.361 639.412L705.853 641.428C705.613 641.503 705.308 641.622 704.938 641.786C704.569 641.949 704.248 642.109 703.977 642.266C703.399 642.6 703.008 642.971 702.804 643.38C702.601 643.782 702.589 644.187 702.767 644.596C702.952 645.001 703.334 645.371 703.913 645.705L711.941 650.34L708.005 652.612ZM724.677 643.307C723.242 644.135 721.696 644.676 720.04 644.928C718.383 645.173 716.723 645.143 715.061 644.837C713.392 644.528 711.83 643.954 710.377 643.115C708.911 642.269 707.914 641.366 707.384 640.406C706.848 639.442 706.796 638.484 707.227 637.531C707.658 636.571 708.591 635.677 710.026 634.849C711.461 634.02 713.007 633.483 714.663 633.238C716.32 632.986 717.983 633.014 719.652 633.323C721.315 633.629 722.879 634.205 724.345 635.051C725.798 635.89 726.793 636.792 727.328 637.755C727.858 638.715 727.907 639.675 727.476 640.635C727.045 641.588 726.112 642.478 724.677 643.307ZM721.647 641.536C722.3 641.159 722.66 640.738 722.728 640.272C722.79 639.803 722.608 639.318 722.183 638.816C721.764 638.312 721.142 637.821 720.317 637.345C719.492 636.868 718.642 636.509 717.767 636.267C716.899 636.022 716.058 635.917 715.245 635.953C714.432 635.988 713.7 636.194 713.047 636.571C712.388 636.952 712.021 637.38 711.947 637.857C711.88 638.329 712.055 638.818 712.474 639.323C712.899 639.824 713.524 640.313 714.349 640.79C715.175 641.266 716.021 641.627 716.89 641.872C717.764 642.114 718.611 642.215 719.43 642.176C720.249 642.13 720.988 641.917 721.647 641.536ZM740.631 634.097C739.196 634.925 737.65 635.466 735.994 635.718C734.337 635.963 732.677 635.933 731.014 635.627C729.345 635.318 727.784 634.744 726.331 633.905C724.865 633.059 723.867 632.156 723.338 631.196C722.802 630.232 722.75 629.274 723.181 628.321C723.612 627.361 724.545 626.467 725.98 625.639C727.415 624.81 728.961 624.273 730.617 624.028C732.274 623.776 733.937 623.804 735.606 624.113C737.268 624.419 738.833 624.995 740.298 625.841C741.752 626.68 742.746 627.582 743.282 628.545C743.812 629.505 743.861 630.465 743.43 631.425C742.999 632.378 742.066 633.268 740.631 634.097ZM737.601 632.326C738.254 631.949 738.614 631.528 738.682 631.062C738.743 630.593 738.562 630.108 738.137 629.606C737.718 629.101 737.096 628.611 736.271 628.134C735.445 627.658 734.596 627.299 733.721 627.057C732.853 626.812 732.012 626.707 731.199 626.743C730.386 626.778 729.653 626.984 729.001 627.361C728.342 627.742 727.975 628.17 727.901 628.646C727.833 629.119 728.009 629.608 728.428 630.113C728.853 630.614 729.478 631.103 730.303 631.58C731.128 632.056 731.975 632.417 732.843 632.662C733.718 632.904 734.565 633.005 735.384 632.966C736.203 632.92 736.942 632.707 737.601 632.326ZM749.897 628.428L735.707 620.236L739.458 618.071L741.961 619.516L742.128 619.42C741.592 618.77 741.429 618.107 741.638 617.431C741.847 616.756 742.432 616.14 743.393 615.586C744.366 615.024 745.438 614.686 746.608 614.573C747.772 614.455 748.88 614.569 749.934 614.914L750.081 614.829C749.558 614.192 749.432 613.515 749.703 612.797C749.974 612.071 750.629 611.408 751.67 610.807C752.994 610.043 754.491 609.666 756.16 609.677C757.829 609.68 759.433 610.127 760.973 611.015L770.515 616.524L766.589 618.791L757.823 613.73C757.034 613.275 756.234 613.054 755.421 613.069C754.608 613.083 753.887 613.271 753.259 613.634C752.545 614.046 752.215 614.5 752.271 614.994C752.32 615.485 752.714 615.943 753.453 616.37L762.118 621.372L758.303 623.575L749.453 618.466C748.757 618.064 748.003 617.859 747.19 617.852C746.383 617.842 745.656 618.023 745.01 618.396C744.572 618.649 744.289 618.94 744.16 619.271C744.031 619.594 744.061 619.929 744.252 620.274C744.437 620.615 744.791 620.937 745.315 621.239L753.832 626.156L749.897 628.428Z" fill="black"/>
<g id="TV">
<path id="wall_28" d="M758.506 748.462V707.412L835.98 662.804V704.175L758.506 748.462Z" fill="#E0E0E0"/>
<path id="wall_29" d="M750.825 702.649L758.506 707.413L835.97 662.813L828.289 658.37L750.825 702.649Z" fill="#999999"/>
<path id="wall_30" d="M758.506 751.604V707.409L750.822 702.645V747.161L758.506 751.604Z" fill="#F0F0F0"/>
</g>
<circle id="3ddc890a-763e-489b-adf8-74e426095880" cx="1171.93" cy="375.737" r="17.2959" fill="#1DD93B"/>
<circle id="629727a4-ada5-4530-b39e-fd54a40ddaf0" cx="800.702" cy="692.688" r="17.2959" fill="#1DD93B"/>
<circle id="6914d7a0-b479-47e9-9808-d5e1863bfabc" cx="514.578" cy="435.51" r="17.2959" fill="#1DD93B"/>
<circle id="a3a0d22c-a4bf-4f98-8a49-6e01e59e9eda" cx="680.182" cy="534.951" r="17.2959" fill="#1DD93B"/>
<circle id="0ed43070-86d4-4ed1-b03c-f88763ec5043" cx="283.465" cy="219.824" r="17.2959" fill="#1DD93B"/>
<circle id="d992c193-9bf0-4436-ba54-a498d96aea1d" cx="538.781" cy="244.279" r="17.2959" fill="#1DD93B"/>
<circle id="69d086ff-1b9d-4d5a-abd3-7e856db0cfb2" cx="762.851" cy="190.495" r="17.2959" fill="#1DD93B"/>
<circle id="bacb1c88-a4a7-4595-9014-9c0c10786b02" cx="985.981" cy="251.88" r="17.2959" fill="#1DD93B"/>
</g>
</svg>
